<svg xmlns="http://www.w3.org/2000/svg" xmlns:xlink="http://www.w3.org/1999/xlink" width="32" height="32" viewBox="0 0 32 32">
  <defs>
    <clipPath id="clip-icns_vis_carousel">
      <rect width="32" height="32"/>
    </clipPath>
  </defs>
  <g id="icns_vis_carousel" clip-path="url(#clip-icns_vis_carousel)">
    <g id="ic_arrow_right">
      <rect id="img_area" width="16" height="16" fill="none"/>
      <path id="Path_83907" data-name="Path 83907" d="M7847.652-1046.137l-6-6,6-6" transform="translate(-7836.652 1060.136)" fill="none" stroke="#4c4c4c" stroke-linecap="round" stroke-linejoin="round" stroke-width="2"/>
    </g>
    <g id="ic_arrow_right-2" data-name="ic_arrow_right" transform="translate(21 -2)">
      <rect id="img_area-2" data-name="img_area" width="16" height="16" transform="translate(-5 2)" fill="none"/>
      <path id="Path_83907-2" data-name="Path 83907" d="M7841.652-1046.137l6-6-6-6" transform="translate(-7841.652 1062.137)" fill="none" stroke="#4c4c4c" stroke-linecap="round" stroke-linejoin="round" stroke-width="2"/>
    </g>
    <g id="ic_pause" transform="translate(-528 -811)">
      <circle id="Ellipse_9444" data-name="Ellipse 9444" cx="8" cy="8" r="8" transform="translate(544 827)" fill="none"/>
      <line id="Line_416" data-name="Line 416" y2="6" transform="translate(549 832)" fill="none" stroke="#4c4c4c" stroke-linecap="round" stroke-width="2"/>
      <line id="Line_417" data-name="Line 417" y2="6" transform="translate(555 832)" fill="none" stroke="#4c4c4c" stroke-linecap="round" stroke-width="2"/>
    </g>
    <g id="Polygon_19" data-name="Polygon 19" transform="translate(12 18) rotate(90)" fill="#494949">
      <path d="M 9.585789680480957 5.500001430511475 L 2.414209604263306 5.500001430511475 C 2.104219436645508 5.500001430511475 1.982269525527954 5.26375150680542 1.952269554138184 5.191341400146484 C 1.922279477119446 5.118941307067871 1.841459512710571 4.86565113067627 2.060659408569336 4.646441459655762 L 5.646439552307129 1.060661315917969 C 5.740879535675049 0.9662213325500488 5.866449356079102 0.9142113327980042 5.999999523162842 0.9142113327980042 C 6.133549690246582 0.9142113327980042 6.259119510650635 0.9662213325500488 6.353559494018555 1.060661315917969 L 9.939339637756348 4.646441459655762 C 10.15853977203369 4.86565113067627 10.07771968841553 5.118941307067871 10.0477294921875 5.191341400146484 C 10.01772975921631 5.26375150680542 9.895779609680176 5.500001430511475 9.585789680480957 5.500001430511475 Z" stroke="none"/>
      <path d="M 5.999999523162842 1.414211273193359 L 5.999999523162842 1.414221286773682 L 2.414219856262207 5.000001430511475 C 2.414219856262207 5.000001430511475 2.414219856262207 5.000001430511475 2.414209365844727 5.000001430511475 L 9.585779190063477 5.000001430511475 L 6.000949382781982 1.414291381835938 C 6.00085973739624 1.414271354675293 6.000499725341797 1.414211273193359 5.999999523162842 1.414211273193359 M 5.999999523162842 0.4142136573791504 C 6.255921840667725 0.4142136573791504 6.511844635009766 0.5118465423583984 6.707109451293945 0.7071113586425781 L 10.29288959503174 4.292891502380371 C 10.92285919189453 4.922861099243164 10.47668933868408 6.000001430511475 9.585789680480957 6.000001430511475 L 2.414209365844727 6.000001430511475 C 1.523309707641602 6.000001430511475 1.077139854431152 4.922861099243164 1.707109451293945 4.292891502380371 L 5.292889595031738 0.7071113586425781 C 5.488154411315918 0.5118465423583984 5.744077205657959 0.4142136573791504 5.999999523162842 0.4142136573791504 Z" stroke="none" fill="#494949"/>
    </g>
  </g>
</svg>
